Coordinates
version=1
nRows=6
nColumns=63
inDegrees=yes

Units are S.I. units (second, meters, Newtons, ...)
If the header above contains a line with 'inDegrees', this indicates whether rotational values are in degrees (yes) or radians (no).

endheader
time	pelvis_tilt	pelvis_list	pelvis_rotation	pelvis_tx	pelvis_ty	pelvis_tz	hip_flexion_r	hip_adduction_r	hip_rotation_r	knee_angle_r	knee_angle_r_beta	ankle_angle_r	subtalar_angle_r	mtp_angle_r	hip_flexion_l	hip_adduction_l	hip_rotation_l	knee_angle_l	knee_angle_l_beta	ankle_angle_l	subtalar_angle_l	mtp_angle_l	L5_S1_Flex_Ext	L5_S1_Lat_Bending	L5_S1_axial_rotation	L4_L5_Flex_Ext	L4_L5_Lat_Bending	L4_L5_axial_rotation	L3_L4_Flex_Ext	L3_L4_Lat_Bending	L3_L4_axial_rotation	L2_L3_Flex_Ext	L2_L3_Lat_Bending	L2_L3_axial_rotation	L1_L2_Flex_Ext	L1_L2_Lat_Bending	L1_L2_axial_rotation	L1_T12_Flex_Ext	L1_T12_Lat_Bending	L1_T12_axial_rotation	Abs_r3	Abs_r2	Abs_r1	Abs_t1	Abs_t2	neck_flexion	neck_bending	neck_rotation	arm_flex_r	arm_add_r	arm_rot_r	elbow_flex_r	pro_sup_r	wrist_flex_r	wrist_dev_r	arm_flex_l	arm_add_l	arm_rot_l	elbow_flex_l	pro_sup_l	wrist_flex_l	wrist_dev_l
      1.75925926	      0.22083769	      5.68136951	     74.51147953	      0.21981117	      0.95614615	      0.49535036	     -6.66009966	      3.07890335	      3.81868801	      6.60207949	      0.11522802	     22.50154337	    -15.55370828	      0.00000000	     -9.79448690	     -3.38661977	     -3.06743808	      1.88049984	      0.03282091	     29.38262867	      8.49875067	      0.00000000	      0.00339368	      0.22996259	      0.73889044	      0.00630240	      0.30585025	      0.78507109	      0.00557548	      0.55913104	      0.78507109	      0.00387864	      0.55913104	      0.64652914	      0.00315137	      0.46893971	      0.60034848	      0.00193915	      0.35621205	      0.55416783	      0.02424071	      2.60138282	      4.10948696	      0.00000000	      0.00000000	     -0.65287375	     -0.69457720	    -12.88356046	     -1.57652702	    -24.65606824	     -6.73162176	    149.46329142	     86.69993610	     10.29345806	      7.73286478	     30.87278507	    -19.04257915	     16.36200725	    143.92267775	     88.99136675	     17.07380737	     14.88549197
      1.77777778	      0.65134234	      5.65254372	     74.20348142	      0.21887896	      0.95569726	      0.49492537	     -6.71878834	      3.40090198	      3.95635284	      6.70156510	      0.11696438	     22.52296795	    -15.43951636	      0.00000000	     -9.93934281	     -3.68562737	     -3.29772774	      1.90023981	      0.03316544	     29.72052110	      8.14341633	      0.00000000	      0.00580414	      0.33019838	      0.93627377	      0.01077887	      0.43916385	      0.99479088	      0.00953562	      0.80284435	      0.99479088	      0.00663355	      0.80284435	      0.81923955	      0.00538973	      0.67334055	      0.76072244	      0.00331649	      0.51147730	      0.70220533	      0.04145840	      3.73527016	      5.20727383	      0.00000000	      0.00000000	     -0.82820310	     -1.52753148	    -12.41149425	     -4.10990364	    -25.27105875	     -7.38618606	    148.81241096	     86.85942036	     10.88516052	     10.85655766	     27.84416321	    -19.49810326	     18.52405701	    142.82801125	     88.88562742	     18.67187283	     14.42438198
      1.79629630	      0.96317236	      5.74622134	     73.55076225	      0.21832680	      0.95563163	      0.49545335	     -6.74680280	      3.54098558	      4.32524098	      6.93904392	      0.12110916	     22.61092488	    -15.20833884	      0.00000000	    -10.18995629	     -3.76956883	     -3.80901772	      1.92601127	      0.03361524	     29.82265625	      7.60165610	      0.00000000	     -0.01208779	      0.41449698	      1.04804105	     -0.02244823	      0.55128099	      1.11354362	     -0.01985902	      1.00780797	      1.11354362	     -0.01381513	      1.00780797	      0.91703592	     -0.01122472	      0.84524225	      0.85153336	     -0.00690696	      0.64205583	      0.78603079	     -0.08634184	      4.68887278	      5.82888992	      0.00000000	      0.00000000	     -1.14025840	     -2.37412039	    -10.91195198	     -5.36311174	    -25.56166565	     -7.47922551	    146.37882397	     86.70226727	     13.12602611	     13.34816262	     23.80972993	    -20.70446539	     20.50096453	    141.46608829	     88.69506420	     20.04572532	     14.02244288
      1.81481481	      1.13837211	      5.82669724	     73.00079605	      0.21772468	      0.95573905	      0.49663718	     -6.61770295	      3.54536859	      4.31338477	      7.31481041	      0.12766753	     22.90271687	    -14.41891916	      0.00000000	    -10.30484333	     -3.75054322	     -4.28145307	      2.01124059	      0.03510277	     29.70009268	      7.04864397	      0.00000000	     -0.03700365	      0.47341406	      1.03756392	     -0.06871948	      0.62964070	      1.10241167	     -0.06079330	      1.15105894	      1.10241167	     -0.04229147	      1.15105894	      0.90786843	     -0.03436159	      0.96538595	      0.84302069	     -0.02114389	      0.73331838	      0.77817294	     -0.26431337	      5.35535452	      5.77061926	      0.00000000	      0.00000000	     -1.32307647	     -2.79515393	     -9.09180004	     -5.77677525	    -25.50070286	     -7.11161767	    142.68308648	     86.86950695	     15.89719622	     14.73143719	     19.23260600	    -22.19689123	     22.28309631	    139.60751888	     88.53950191	     19.96401972	     14.15999484
      1.83333333	      1.14571426	      5.84510194	     72.45077633	      0.21764629	      0.95575101	      0.49756541	     -6.58539370	      3.48277464	      5.43484646	      7.30535306	      0.12750246	     22.64270668	    -15.09350335	      0.00000000	    -10.37153812	     -3.60598282	     -4.36902371	      1.99848337	      0.03488011	     29.40192363	      6.08817630	      0.00000000	     -0.06077377	      0.50439659	      0.98624634	     -0.11286297	      0.67084747	      1.04788674	     -0.09984523	      1.22638988	      1.04788674	     -0.06945834	      1.22638988	      0.86296555	     -0.05643452	      1.02856553	      0.80132515	     -0.03472613	      0.78131032	      0.73968476	     -0.43410095	      5.70583514	      5.48520629	      0.00000000	      0.00000000	     -1.01654675	     -2.72655117	     -6.85812009	     -5.86323723	    -24.84636716	     -6.94753040	    138.62650471	     87.11907406	     20.93039717	     15.33056314	     14.44959266	    -23.50203990	     23.86995498	    137.05351255	     88.37055824	     16.75096707	     13.61970143
      1.85185185	      1.14128476	      5.68349717	     71.53855763	      0.21792861	      0.95546701	      0.49835939	     -6.27608231	      3.38801153	      6.28910593	      7.53138811	      0.13144752	     22.78564537	    -14.80486305	      0.00000000	    -10.33867529	     -3.43712418	     -4.86703473	      1.93134526	      0.03370833	     29.18299194	      5.28283657	      0.00000000	     -0.08655872	      0.54452888	      0.95220733	     -0.16074820	      0.72422341	      1.01172029	     -0.14220732	      1.32396752	      1.01172029	     -0.09892796	      1.32396752	      0.83318142	     -0.08037843	      1.11040330	      0.77366846	     -0.04945965	      0.84347524	      0.71415550	     -0.61828027	      6.15981962	      5.29589153	      0.00000000	      0.00000000	      0.03068461	     -2.80029256	     -4.07624536	     -5.73732586	    -24.55417116	     -5.33469242	    135.11828865	     87.65289314	     22.59050662	     16.14928148	      9.61601964	    -23.68090566	     23.94987336	    134.24134496	     88.11420631	     13.18615699	     14.20609416
